<svg width="123" height="123" viewBox="0 0 123 123" fill="none" xmlns="http://www.w3.org/2000/svg">
<g clip-path="url(#clip0_3_6)">
<path d="M49.06 1.27C51.23 0.820003 53.4 0.500003 55.54 0.290003C57.74 0.0800034 59.92 -0.0199966 62.07 3.37581e-06C63.28 0.0100034 64.25 1 64.24 2.21C64.23 3.14 63.64 3.93 62.82 4.24C53.67 7.84 46.35 14.55 41.86 22.86C37.44 31.03 35.76 40.74 37.77 50.54L37.78 50.61C40.07 61.67 46.61 70.76 55.36 76.52C64.1 82.28 75.03 84.7 86.09 82.44L86.16 82.43C94.12 80.78 101.05 76.94 106.46 71.65C112.06 66.18 116.02 59.17 117.79 51.49C118.06 50.31 119.24 49.58 120.41 49.85C121.3 50.06 121.94 50.78 122.08 51.63C124.72 67.83 120.73 83.7 112.02 96.34C103.35 108.92 89.99 118.31 73.84 121.63C57.22 125.05 40.79 121.41 27.66 112.77C14.52 104.1 4.69001 90.45 1.27001 73.83C-2.06999 57.6 1.32001 41.55 9.53001 28.58C17.78 15.57 30.88 5.64 46.91 1.75C47.22 1.67 47.58 1.59 47.97 1.5H47.98L49.06 1.27Z" fill="white"/>
</g>
<defs>
<clipPath id="clip0_3_6">
<rect width="122.88" height="122.89" fill="white"/>
</clipPath>
</defs>
</svg>
